<svg width="24" height="25" viewBox="0 0 24 25" fill="none" xmlns="http://www.w3.org/2000/svg">
<path d="M21.5 11.854V5.05398C21.5 3.55398 20.86 2.95398 19.27 2.95398H15.23C13.64 2.95398 13 3.55398 13 5.05398V11.854C13 13.354 13.64 13.954 15.23 13.954H19.27C20.86 13.954 21.5 13.354 21.5 11.854Z" fill="#646464"/>
<path d="M11 14.054V20.854C11 22.354 10.36 22.954 8.77 22.954H4.73C3.14 22.954 2.5 22.354 2.5 20.854V14.054C2.5 12.554 3.14 11.954 4.73 11.954H8.77C10.36 11.954 11 12.554 11 14.054Z" fill="#646464"/>
<path d="M21.5 20.854V18.054C21.5 16.554 20.86 15.954 19.27 15.954H15.23C13.64 15.954 13 16.554 13 18.054V20.854C13 22.354 13.64 22.954 15.23 22.954H19.27C20.86 22.954 21.5 22.354 21.5 20.854Z" fill="#646464"/>
<path d="M11 7.85398V5.05398C11 3.55398 10.36 2.95398 8.77 2.95398H4.73C3.14 2.95398 2.5 3.55398 2.5 5.05398V7.85398C2.5 9.35398 3.14 9.95398 4.73 9.95398H8.77C10.36 9.95398 11 9.35398 11 7.85398Z" fill="#646464"/>
</svg>
