<svg width="24" height="25" viewBox="0 0 24 25" fill="none" xmlns="http://www.w3.org/2000/svg">
<path d="M15 23.7041H9C3.57 23.7041 1.25 21.3841 1.25 15.9541V9.9541C1.25 4.5241 3.57 2.2041 9 2.2041H14C14.41 2.2041 14.75 2.5441 14.75 2.9541C14.75 3.3641 14.41 3.7041 14 3.7041H9C4.39 3.7041 2.75 5.3441 2.75 9.9541V15.9541C2.75 20.5641 4.39 22.2041 9 22.2041H15C19.61 22.2041 21.25 20.5641 21.25 15.9541V10.9541C21.25 10.5441 21.59 10.2041 22 10.2041C22.41 10.2041 22.75 10.5441 22.75 10.9541V15.9541C22.75 21.3841 20.43 23.7041 15 23.7041Z" fill="#646464"/>
<path d="M22 11.7041H18C14.58 11.7041 13.25 10.3741 13.25 6.95409V2.95409C13.25 2.65409 13.43 2.37409 13.71 2.26409C13.99 2.14409 14.31 2.21409 14.53 2.42409L22.53 10.4241C22.74 10.6341 22.81 10.9641 22.69 11.2441C22.57 11.5241 22.3 11.7041 22 11.7041ZM14.75 4.76409V6.95409C14.75 9.53409 15.42 10.2041 18 10.2041H20.19L14.75 4.76409Z" fill="#646464"/>
<path d="M13 14.7041H7C6.59 14.7041 6.25 14.3641 6.25 13.9541C6.25 13.5441 6.59 13.2041 7 13.2041H13C13.41 13.2041 13.75 13.5441 13.75 13.9541C13.75 14.3641 13.41 14.7041 13 14.7041Z" fill="#646464"/>
<path d="M11 18.7041H7C6.59 18.7041 6.25 18.3641 6.25 17.9541C6.25 17.5441 6.59 17.2041 7 17.2041H11C11.41 17.2041 11.75 17.5441 11.75 17.9541C11.75 18.3641 11.41 18.7041 11 18.7041Z" fill="#646464"/>
</svg>
