<svg width="44" height="45" viewBox="0 0 44 45" fill="none" xmlns="http://www.w3.org/2000/svg">
<ellipse cx="21.7396" cy="22.5" rx="21.7396" ry="22.5" fill="white"/>
<path d="M25.1999 31.5L27.9999 28.7V31H28.9999V27H24.9999V28H27.2999L24.4999 30.8L25.1999 31.5ZM13.9999 32C13.4499 32 12.9789 31.804 12.5869 31.412C12.1949 31.02 11.9993 30.5493 11.9999 30V16C11.9999 15.45 12.1959 14.979 12.5879 14.587C12.9799 14.195 13.4506 13.9993 13.9999 14H27.9999C28.5499 14 29.0209 14.196 29.4129 14.588C29.8049 14.98 30.0006 15.4507 29.9999 16V22.7C29.6833 22.55 29.3583 22.4207 29.0249 22.312C28.6916 22.2033 28.3499 22.1243 27.9999 22.075V16H13.9999V30H20.0499C20.0999 30.3667 20.1793 30.7167 20.2879 31.05C20.3966 31.3833 20.5256 31.7 20.6749 32H13.9999ZM13.9999 29V30V16V22.075V22V29ZM15.9999 28H20.0749C20.1249 27.65 20.2043 27.3083 20.3129 26.975C20.4216 26.6417 20.5423 26.3167 20.6749 26H15.9999V28ZM15.9999 24H22.0999C22.6333 23.5 23.2289 23.0833 23.8869 22.75C24.5449 22.4167 25.2493 22.1917 25.9999 22.075V22H15.9999V24ZM15.9999 20H25.9999V18H15.9999V20ZM26.9999 34C25.6166 34 24.4373 33.5123 23.4619 32.537C22.4866 31.5617 21.9993 30.3827 21.9999 29C21.9999 27.6167 22.4876 26.4373 23.4629 25.462C24.4383 24.4867 25.6173 23.9993 26.9999 24C28.3833 24 29.5626 24.4877 30.5379 25.463C31.5133 26.4383 32.0006 27.6173 31.9999 29C31.9999 30.3833 31.5123 31.5627 30.5369 32.538C29.5616 33.5133 28.3826 34.0007 26.9999 34Z" fill="#08B1BD"/>
</svg>
