<svg width="20" height="23" viewBox="0 0 20 23" fill="none" xmlns="http://www.w3.org/2000/svg">
<path fill-rule="evenodd" clip-rule="evenodd" d="M0 16.2961V7.61188C0 6.874 0.51111 5.9772 1.14444 5.62529L8.92222 1.2094C9.51111 0.86884 10.4889 0.86884 11.0778 1.2094L18.8556 5.62529C19.4889 5.98855 20 6.874 20 7.61188V16.2961C20 17.034 19.4889 17.9308 18.8556 18.2827L11.0778 22.6986C10.4889 23.0391 9.51111 23.0391 8.92222 22.6986L1.14444 18.2827C0.51111 17.9194 0 17.034 0 16.2961ZM12.9446 11.9478C12.9446 13.6577 11.5961 14.9886 10.0001 14.9886C8.40409 14.9886 7.05566 13.6577 7.05566 11.9478C7.05566 10.238 8.40409 8.90705 10.0001 8.90705C11.5961 8.90705 12.9446 10.238 12.9446 11.9478ZM14.4446 11.9478C14.4446 14.4556 12.4547 16.4886 10.0001 16.4886C7.54551 16.4886 5.55566 14.4556 5.55566 11.9478C5.55566 9.44002 7.54551 7.40705 10.0001 7.40705C12.4547 7.40705 14.4446 9.44002 14.4446 11.9478Z" fill="#646464"/>
</svg>
