<svg width="24" height="25" viewBox="0 0 24 25" fill="none" xmlns="http://www.w3.org/2000/svg">
<path d="M20.2499 13.5242V12.3767L21.6899 11.1167C21.9554 10.8827 22.1296 10.5624 22.1817 10.2125C22.2339 9.86249 22.1606 9.50535 21.9749 9.20416L20.2049 6.20416C20.0734 5.97636 19.8843 5.78715 19.6566 5.65551C19.4288 5.52387 19.1705 5.45443 18.9074 5.45416C18.7444 5.45291 18.5823 5.47825 18.4274 5.52916L16.6049 6.14416C16.2903 5.93507 15.9621 5.74715 15.6224 5.58166L15.2399 3.69166C15.1714 3.34637 14.9835 3.03619 14.7093 2.81544C14.4351 2.59469 14.0919 2.47742 13.7399 2.48416H10.2299C9.87797 2.47742 9.53483 2.59469 9.2606 2.81544C8.98638 3.03619 8.79853 3.34637 8.72995 3.69166L8.34745 5.58166C8.00539 5.74711 7.67467 5.93502 7.35745 6.14416L5.57244 5.49916C5.41592 5.45838 5.25382 5.44318 5.09245 5.45416C4.8294 5.45443 4.57105 5.52387 4.34332 5.65551C4.11558 5.78715 3.92647 5.97636 3.79495 6.20416L2.02495 9.20416C1.84989 9.5049 1.78483 9.85715 1.84093 10.2006C1.89703 10.544 2.07079 10.8573 2.33245 11.0867L3.74995 12.3842V13.5317L2.33245 14.7917C2.0634 15.0227 1.88489 15.3415 1.82859 15.6916C1.7723 16.0417 1.84187 16.4005 2.02495 16.7042L3.79495 19.7042C3.92647 19.932 4.11558 20.1212 4.34332 20.2528C4.57105 20.3845 4.8294 20.4539 5.09245 20.4542C5.25546 20.4554 5.41758 20.4301 5.57244 20.3792L7.39494 19.7642C7.7096 19.9733 8.03783 20.1612 8.37744 20.3267L8.75994 22.2167C8.82853 22.562 9.01638 22.8721 9.2906 23.0929C9.56483 23.3136 9.90797 23.4309 10.2599 23.4242H13.7999C14.1519 23.4309 14.4951 23.3136 14.7693 23.0929C15.0435 22.8721 15.2314 22.562 15.2999 22.2167L15.6824 20.3267C16.0245 20.1612 16.3552 19.9733 16.6724 19.7642L18.4874 20.3792C18.6423 20.4301 18.8044 20.4554 18.9674 20.4542C19.2305 20.4539 19.4888 20.3845 19.7166 20.2528C19.9443 20.1212 20.1334 19.932 20.2649 19.7042L21.9749 16.7042C22.15 16.4034 22.2151 16.0512 22.159 15.7077C22.1029 15.3643 21.9291 15.0511 21.6674 14.8217L20.2499 13.5242ZM18.9074 18.9542L16.3349 18.0842C15.7327 18.5942 15.0445 18.993 14.3024 19.2617L13.7699 21.9542H10.2299L9.69744 19.2917C8.96126 19.0153 8.27673 18.6173 7.67244 18.1142L5.09245 18.9542L3.32244 15.9542L5.36245 14.1542C5.22377 13.3778 5.22377 12.583 5.36245 11.8067L3.32244 9.95416L5.09245 6.95416L7.66495 7.82416C8.26715 7.31408 8.9554 6.91535 9.69744 6.64666L10.2299 3.95416H13.7699L14.3024 6.61666C15.0386 6.89298 15.7232 7.29102 16.3274 7.79416L18.9074 6.95416L20.6774 9.95416L18.6374 11.7542C18.7761 12.5305 18.7761 13.3253 18.6374 14.1017L20.6774 15.9542L18.9074 18.9542Z" fill="#646464"/>
<path d="M12 17.4541C11.11 17.4541 10.24 17.1902 9.49994 16.6957C8.75991 16.2012 8.18314 15.4984 7.84254 14.6762C7.50195 13.8539 7.41283 12.9491 7.58647 12.0762C7.7601 11.2033 8.18868 10.4015 8.81802 9.77212C9.44736 9.14279 10.2492 8.7142 11.1221 8.54057C11.995 8.36694 12.8998 8.45605 13.7221 8.79665C14.5443 9.13724 15.2471 9.71402 15.7416 10.454C16.2361 11.1941 16.5 12.0641 16.5 12.9541C16.506 13.5467 16.3937 14.1346 16.1697 14.6833C15.9457 15.232 15.6145 15.7304 15.1954 16.1495C14.7763 16.5686 14.2779 16.8998 13.7292 17.1238C13.1805 17.3478 12.5926 17.4601 12 17.4541ZM12 9.9541C11.6035 9.94487 11.2093 10.0162 10.8411 10.1636C10.473 10.3111 10.1386 10.5318 9.85812 10.8122C9.57768 11.0927 9.35704 11.4271 9.20954 11.7952C9.06205 12.1634 8.99077 12.5576 9 12.9541C8.99077 13.3506 9.06205 13.7448 9.20954 14.113C9.35704 14.4811 9.57768 14.8156 9.85812 15.096C10.1386 15.3764 10.473 15.5971 10.8411 15.7446C11.2093 15.8921 11.6035 15.9633 12 15.9541C12.3965 15.9633 12.7907 15.8921 13.1589 15.7446C13.527 15.5971 13.8615 15.3764 14.1419 15.096C14.4223 14.8156 14.643 14.4811 14.7905 14.113C14.938 13.7448 15.0092 13.3506 15 12.9541C15.0092 12.5576 14.938 12.1634 14.7905 11.7952C14.643 11.4271 14.4223 11.0927 14.1419 10.8122C13.8615 10.5318 13.527 10.3111 13.1589 10.1636C12.7907 10.0162 12.3965 9.94487 12 9.9541Z" fill="#646464"/>
</svg>
