<svg width="45" height="45" viewBox="0 0 45 45" fill="none" xmlns="http://www.w3.org/2000/svg">
<ellipse cx="22.6687" cy="22.5" rx="21.7603" ry="22.5" fill="white"/>
<path d="M32.4063 22.5018C32.3905 24.9938 32.2835 27.5116 32.4801 30.0009C33.4854 27.583 33.7518 25.0214 33.7829 22.5085C33.7369 19.9897 33.485 17.4321 32.4801 15.0076C32.2997 17.4973 32.3905 20.0103 32.4063 22.5018ZM36 22.5089C35.941 18.7371 35.608 14.9406 34.3899 11.2603C34.4102 15.0786 34.6378 18.8938 34.6212 22.7129C34.6054 26.3924 34.3989 30.071 34.3899 33.7487C35.6126 30.0728 35.941 26.2781 36 22.5089ZM30.6936 20.3326L30.6315 20.3192C30.3984 14.4554 29.2401 10 27.8473 10C27.5791 10 27.3204 10.1683 27.0742 10.4763C26.5396 11.0665 19.6762 18.5237 13.7979 19.2446C13.1098 19.329 12.4524 19.3991 11.8422 19.4496C11.1321 19.5089 10.4859 19.542 9.9288 19.542C9.9288 19.542 9 20.9759 9 22.5098C9 24.046 9.9306 25.4777 9.9306 25.4777C10.4877 25.4777 11.1348 25.5107 11.8449 25.5692C12.1036 25.5911 12.3745 25.6179 12.649 25.646V31.629H16.2859L19.858 28.3183C23.8468 30.9281 27.0972 34.5647 27.0972 34.5647V34.5527C27.3361 34.842 27.5877 35 27.8473 35C29.2401 35 30.3984 30.5446 30.6319 24.6808L30.694 24.6679C31.0734 24.6679 31.3816 23.6964 31.3816 22.5004C31.3812 21.3031 31.073 20.3326 30.6936 20.3326ZM27.8473 10.9366C28.4904 11.4978 29.4881 14.7603 29.7243 20.1214L26.0154 19.3138C26.3106 14.4362 27.2371 11.4683 27.8473 10.9366ZM14.4675 23.6455C14.0571 23.6455 13.7232 23.2513 13.7232 22.767C13.7232 22.2812 14.0571 21.8875 14.4675 21.8875C14.8788 21.8875 15.2109 22.2812 15.2109 22.767C15.2113 23.2518 14.8788 23.6455 14.4675 23.6455ZM16.2859 28.2571V26.4304C16.731 26.6031 17.1765 26.8018 17.6184 27.0223L16.2859 28.2571ZM16.2859 25.4795V20.8219H14.1872C14.2636 20.5464 14.35 20.2857 14.4396 20.05C18.8811 19.2415 23.5993 15.192 26.0644 12.7982C25.4268 15.0897 25.0191 18.5835 25.0191 22.5C25.0191 26.4277 25.429 29.9304 26.0707 32.2219C23.9517 30.1643 20.1474 26.8674 16.2859 25.4795ZM27.8473 34.0634C27.2376 33.5317 26.3106 30.5634 26.0154 25.6857L29.7243 24.8781C29.4881 30.2393 28.4904 33.5022 27.8473 34.0634Z" fill="#08B1BD"/>
</svg>
