<svg width="20" height="19" viewBox="0 0 20 19" fill="none" xmlns="http://www.w3.org/2000/svg">
<path d="M17.2233 9.50131C17.2119 11.3329 17.1338 13.1835 17.2772 15.0132C18.0102 13.236 18.2044 11.3533 18.2271 9.50624C18.1936 7.65495 18.0099 5.77513 17.2772 3.99308C17.1456 5.82303 17.2119 7.67005 17.2233 9.50131ZM19.8438 9.50656C19.8008 6.73423 19.558 3.94386 18.6697 1.2388C18.6845 4.04525 18.8505 6.84941 18.8384 9.65652C18.8269 12.3609 18.6763 15.0647 18.6697 17.7678C19.5612 15.066 19.8008 12.2769 19.8438 9.50656ZM15.9745 7.90695L15.9292 7.89711C15.7592 3.58719 14.9147 0.3125 13.8991 0.3125C13.7035 0.3125 13.5149 0.436203 13.3354 0.662609C12.9456 1.09639 7.94102 6.57739 3.65472 7.10731C3.15302 7.16933 2.67362 7.22084 2.22869 7.25792C1.71091 7.30156 1.23972 7.32584 0.8335 7.32584C0.8335 7.32584 0.15625 8.37978 0.15625 9.50722C0.15625 10.6363 0.834812 11.6886 0.834812 11.6886C1.24103 11.6886 1.71287 11.7129 2.23066 11.7559C2.41933 11.7719 2.61686 11.7916 2.81702 11.8123L2.81702 16.2098H5.46892L8.07358 13.7765C10.9821 15.6947 13.3521 18.3676 13.3521 18.3676V18.3587C13.5264 18.5713 13.7098 18.6875 13.8991 18.6875C14.9147 18.6875 15.7592 15.4128 15.9295 11.1029L15.9748 11.0934C16.2514 11.0934 16.4762 10.3794 16.4762 9.50033C16.4759 8.6203 16.2511 7.90695 15.9745 7.90695ZM13.8991 1.00091C14.368 1.41336 15.0955 3.8113 15.2677 7.75175L12.5633 7.15817C12.7786 3.57308 13.4542 1.3917 13.8991 1.00091ZM4.14297 10.342C3.84372 10.342 3.60025 10.0522 3.60025 9.69622C3.60025 9.33922 3.84372 9.04981 4.14297 9.04981C4.44287 9.04981 4.68503 9.33922 4.68503 9.69622C4.68536 10.0526 4.44287 10.342 4.14297 10.342ZM5.46892 13.7315V12.3888C5.79344 12.5158 6.11828 12.6618 6.4405 12.8239L5.46892 13.7315ZM5.46892 11.6899L5.46892 8.26658H3.93855C3.99433 8.06412 4.05733 7.8725 4.12263 7.69925C7.36122 7.10502 10.8016 4.12859 12.5991 2.36919C12.1341 4.05345 11.8368 6.62136 11.8368 9.5C11.8368 12.3868 12.1358 14.9613 12.6037 16.6456C11.0585 15.1333 8.28456 12.71 5.46892 11.6899ZM13.8991 17.9991C13.4545 17.6083 12.7786 15.4266 12.5633 11.8415L15.2677 11.2479C15.0955 15.1884 14.368 17.5866 13.8991 17.9991Z" fill="#646464"/>
</svg>
