<svg width="44" height="45" viewBox="0 0 44 45" fill="none" xmlns="http://www.w3.org/2000/svg">
<ellipse cx="21.7396" cy="22.5" rx="21.7396" ry="22.5" fill="white"/>
<g clip-path="url(#clip0_382_637720)">
<mask id="mask0_382_637720" style="mask-type:luminance" maskUnits="userSpaceOnUse" x="9" y="5" width="24" height="34">
<path d="M9.74963 5.00629H32.7291V38.9635H9.74963V5.00629Z" fill="white"/>
</mask>
<g mask="url(#mask0_382_637720)">
<path d="M9.74963 5.00629H32.7484V39.2644H9.74963V5.00629Z" fill="white"/>
<path d="M9.74963 5.00629H32.7484V38.992H9.74963V5.00629Z" fill="white"/>
<path d="M9.74963 5.00629H32.7484V38.992H9.74963V5.00629Z" fill="white"/>
</g>
<mask id="mask1_382_637720" style="mask-type:luminance" maskUnits="userSpaceOnUse" x="9" y="9" width="23" height="26">
<path d="M9.74963 9.57849H31.9573V34.3944H9.74963V9.57849Z" fill="white"/>
</mask>
<g mask="url(#mask1_382_637720)">
<path d="M10.1556 34.3944H12.1366C12.3073 34.3944 12.4587 34.2806 12.5125 34.1115L13.1996 31.96L13.3259 34.0073C13.3395 34.2248 13.5125 34.3944 13.7213 34.3944H15.3061C15.5149 34.3944 15.6881 34.2251 15.7015 34.0073L16.4907 21.239L16.9205 19.9035L21.0802 21.947C21.1338 21.9732 21.1915 21.9865 21.249 21.9865H23.23V32.7399C23.23 32.9682 23.4075 33.1536 23.6261 33.1536H23.6824C23.8595 33.8649 24.4748 34.3944 25.2109 34.3944C25.9471 34.3944 26.5624 33.8649 26.7395 33.1536H28.833C29.0101 33.8649 29.6254 34.3944 30.3615 34.3944C31.2355 34.3944 31.9462 33.6523 31.9462 32.7399C31.9462 31.8276 31.2355 31.0856 30.3615 31.0856V27.3632H31.1539C31.3726 27.3632 31.55 27.1778 31.55 26.9496V23.6408C31.55 23.4125 31.3726 23.2272 31.1539 23.2272H30.7577V20.332C30.7577 20.1037 30.5802 19.9184 30.3615 19.9184H25.2109C24.9923 19.9184 24.8147 20.1037 24.8147 20.332V23.2272H24.0223V20.332C24.0223 20.1037 23.8449 19.9184 23.6261 19.9184H21.3587L17.488 17.4939C17.4907 16.1356 16.7933 14.8898 15.7137 14.1988C16.4166 13.7673 16.8908 12.9712 16.8908 12.0601C16.8908 11.8739 16.8695 11.6931 16.8323 11.5183L18.1132 11.2308L17.9468 10.4221L16.524 10.7415C16.1028 10.0441 15.3604 9.57849 14.5137 9.57849C13.2028 9.57849 12.1366 10.6914 12.1366 12.0601C12.1366 13.0192 12.6611 13.8509 13.4257 14.264C12.4519 15.0235 11.9075 16.2904 12.0752 17.6031L12.5308 21.1695L12.1417 26.0421L9.77753 33.8563C9.73951 33.9821 9.76094 34.1189 9.83577 34.2256C9.91075 34.3315 10.0292 34.3944 10.1556 34.3944ZM25.2109 33.5672C24.774 33.5672 24.4185 33.1961 24.4185 32.7399C24.4185 32.2838 24.774 31.9127 25.2109 31.9127C25.648 31.9127 26.0034 32.2838 26.0034 32.7399C26.0034 33.1961 25.648 33.5672 25.2109 33.5672ZM31.1539 32.7399C31.1539 33.1961 30.7986 33.5672 30.3615 33.5672C29.9246 33.5672 29.5691 33.1961 29.5691 32.7399C29.5691 32.2838 29.9246 31.9127 30.3615 31.9127C30.7986 31.9127 31.1539 32.2838 31.1539 32.7399ZM28.833 32.3263H26.7395C26.5624 31.6149 25.9471 31.0856 25.2109 31.0856C24.7355 31.0856 24.3132 31.3098 24.0223 31.6572V27.3632H29.5691V31.3156C29.209 31.5352 28.9403 31.895 28.833 32.3263ZM25.6072 20.7456H29.9653V23.2272H25.6072V20.7456ZM30.7577 24.0544V26.536H24.0223V24.0544H30.7577ZM23.23 21.1592H21.6452V20.7456H23.23V21.1592ZM14.9349 33.5672H14.0929L13.8651 29.8761L14.4959 27.9004L15.4903 24.5784L14.9349 33.5672ZM20.8528 20.921L16.2855 18.6777C15.9578 18.5162 15.7117 18.2309 15.593 17.8736C15.5236 17.6643 15.5026 17.4459 15.5304 17.233L20.8528 20.5661V20.921ZM14.5137 10.4056C14.9698 10.4056 15.3782 10.6108 15.6678 10.9338L13.0208 11.5277C13.2344 10.8775 13.8192 10.4056 14.5137 10.4056ZM12.9606 12.3871L16.056 11.6928C16.0818 11.811 16.0984 11.9335 16.0984 12.0601C16.0984 12.9724 15.3877 13.7144 14.5137 13.7144C13.7471 13.7144 13.1064 13.1433 12.9606 12.3871ZM14.5356 14.559C15.6408 14.8625 16.461 15.8279 16.6535 16.9712L15.5102 16.2552C15.415 16.1956 15.3014 16.1799 15.1956 16.2125C15.0897 16.2448 15.0014 16.3217 14.952 16.4247C14.6935 16.9641 14.6555 17.5746 14.8445 18.1446C15.0336 18.7144 15.4257 19.1693 15.9483 19.4262L16.1991 19.5495L15.8136 20.7456H13.2756L12.8604 17.4935C12.6984 16.2254 13.3987 15.0102 14.5356 14.559ZM12.9107 26.2469C12.9194 26.2175 12.9253 26.1873 12.9277 26.1567L13.2934 21.5728H15.5597L13.742 27.6461L11.8508 33.5672H10.696L12.9107 26.2469Z" fill="#08B1BD"/>
</g>
<mask id="mask2_382_637720" style="mask-type:luminance" maskUnits="userSpaceOnUse" x="20" y="9" width="13" height="10">
<path d="M20.0228 9.57849H32.7291V18.686H20.0228V9.57849Z" fill="white"/>
</mask>
<g mask="url(#mask2_382_637720)">
<path d="M32.3425 9.57849H22.4376C22.219 9.57849 22.0414 9.76371 22.0414 9.99195V13.4803L20.2525 14.6007C20.1334 14.6753 20.0605 14.8101 20.0605 14.9552C20.0605 15.1004 20.1334 15.2352 20.2525 15.3097L22.0414 16.4302V18.264C22.0414 18.4923 22.219 18.6777 22.4376 18.6777H32.3425C32.5612 18.6777 32.7386 18.4923 32.7386 18.264V9.99195C32.7386 9.76371 32.5612 9.57849 32.3425 9.57849ZM31.9463 17.8504H22.8338V16.1959C22.8338 16.0508 22.7609 15.916 22.6417 15.8416L21.2269 14.9552L22.6417 14.0689C22.7609 13.9945 22.8338 13.8596 22.8338 13.7144V10.4056H31.9463V17.8504Z" fill="#08B1BD"/>
</g>
<path d="M27.192 16.5886V17.4368H27.9844V16.5886C28.6547 16.4872 29.1729 15.8891 29.1729 15.162C29.1729 14.3638 28.5509 13.7143 27.7863 13.7143H27.3901C27.0624 13.7143 26.7958 13.436 26.7958 13.0939C26.7958 12.752 27.0624 12.4736 27.3901 12.4736H27.7863C28.114 12.4736 28.3805 12.752 28.3805 13.0939V13.1973H29.1729V13.0939C29.1729 12.3669 28.6547 11.7689 27.9844 11.6675V10.8192H27.192V11.6675C26.5215 11.7689 26.0034 12.3669 26.0034 13.0939C26.0034 13.8923 26.6253 14.5416 27.3901 14.5416H27.7863C28.114 14.5416 28.3805 14.8199 28.3805 15.162C28.3805 15.5041 28.114 15.7824 27.7863 15.7824H27.3901C27.0624 15.7824 26.7958 15.5041 26.7958 15.162V15.0586H26.0034V15.162C26.0034 15.8891 26.5215 16.4872 27.192 16.5886Z" fill="#08B1BD"/>
</g>
<defs>
<clipPath id="clip0_382_637720">
<rect width="23" height="34" fill="white" transform="translate(9.74902 5)"/>
</clipPath>
</defs>
</svg>
