<svg width="24" height="25" viewBox="0 0 24 25" fill="none" xmlns="http://www.w3.org/2000/svg">
<path d="M17.62 10.5742H12.37C11.96 10.5742 11.62 10.2342 11.62 9.82422C11.62 9.41422 11.96 9.07422 12.37 9.07422H17.62C18.03 9.07422 18.37 9.41422 18.37 9.82422C18.37 10.2342 18.04 10.5742 17.62 10.5742Z" fill="#646464"/>
<path d="M7.12006 11.3342C6.93006 11.3342 6.74006 11.2642 6.59006 11.1142L5.84006 10.3642C5.55006 10.0742 5.55006 9.59417 5.84006 9.30417C6.13006 9.01417 6.61006 9.01417 6.90006 9.30417L7.12006 9.52417L8.84006 7.80417C9.13006 7.51417 9.61006 7.51417 9.90006 7.80417C10.1901 8.09417 10.1901 8.57417 9.90006 8.86417L7.65006 11.1142C7.51006 11.2542 7.32006 11.3342 7.12006 11.3342Z" fill="#646464"/>
<path d="M17.62 17.5742H12.37C11.96 17.5742 11.62 17.2342 11.62 16.8242C11.62 16.4142 11.96 16.0742 12.37 16.0742H17.62C18.03 16.0742 18.37 16.4142 18.37 16.8242C18.37 17.2342 18.04 17.5742 17.62 17.5742Z" fill="#646464"/>
<path d="M7.12006 18.3342C6.93006 18.3342 6.74006 18.2642 6.59006 18.1142L5.84006 17.3642C5.55006 17.0742 5.55006 16.5942 5.84006 16.3042C6.13006 16.0142 6.61006 16.0142 6.90006 16.3042L7.12006 16.5242L8.84006 14.8042C9.13006 14.5142 9.61006 14.5142 9.90006 14.8042C10.1901 15.0942 10.1901 15.5742 9.90006 15.8642L7.65006 18.1142C7.51006 18.2542 7.32006 18.3342 7.12006 18.3342Z" fill="#646464"/>
<path d="M15 23.7041H9C3.57 23.7041 1.25 21.3841 1.25 15.9541V9.9541C1.25 4.5241 3.57 2.2041 9 2.2041H15C20.43 2.2041 22.75 4.5241 22.75 9.9541V15.9541C22.75 21.3841 20.43 23.7041 15 23.7041ZM9 3.7041C4.39 3.7041 2.75 5.3441 2.75 9.9541V15.9541C2.75 20.5641 4.39 22.2041 9 22.2041H15C19.61 22.2041 21.25 20.5641 21.25 15.9541V9.9541C21.25 5.3441 19.61 3.7041 15 3.7041H9Z" fill="#646464"/>
</svg>
