<svg width="17" height="22" viewBox="0 0 17 22" fill="none" xmlns="http://www.w3.org/2000/svg">
<path d="M0.855757 0.308502C0.717724 0.985861 0.648188 1.67929 0.64853 2.375C0.64853 5.89575 2.40642 8.94931 4.96646 10.4378C4.62337 9.96365 4.32279 9.42001 4.06412 8.82461C2.41107 7.31973 1.3515 4.99156 1.3515 2.375C1.3515 1.66096 1.43099 0.968719 1.57931 0.308502L0.855757 0.308502ZM3.45904 0.308502C3.25818 0.954658 3.14853 1.65032 3.14853 2.375C3.14853 4.67702 4.25283 6.687 5.88412 7.74235C5.63943 7.28294 5.44779 6.77186 5.29728 6.25283C4.40626 5.27951 3.8515 3.90324 3.8515 2.375C3.8515 1.64192 3.97943 0.943967 4.2106 0.308502L3.45904 0.308502ZM6.28892 0.308502C5.88892 0.873035 5.64853 1.59268 5.64853 2.375C5.64853 3.56736 6.20685 4.61413 7.03806 5.18814C6.88939 4.7621 6.78103 4.27097 6.71259 3.75001C6.48447 3.35748 6.3515 2.88486 6.3515 2.375C6.3515 1.86513 6.48443 1.39256 6.71259 0.99994C6.74297 0.767452 6.78276 0.536721 6.83185 0.308502L6.28892 0.308502ZM10.1682 0.308502C10.2173 0.536737 10.2571 0.767482 10.2874 0.999985C10.5156 1.39251 10.6485 1.86513 10.6485 2.375C10.6485 2.88486 10.5156 3.35744 10.2874 3.75006C10.219 4.27097 10.1106 4.7621 9.96197 5.18814C10.7932 4.61413 11.3515 3.56736 11.3515 2.375C11.3515 1.59268 11.1111 0.873035 10.7111 0.308502L10.1682 0.308502H10.1682ZM12.7894 0.308502C13.0206 0.943967 13.1485 1.64192 13.1485 2.375C13.1485 3.90324 12.5938 5.27951 11.7027 6.25283C11.5523 6.77186 11.3606 7.28289 11.1159 7.74235C12.7472 6.68705 13.8515 4.67702 13.8515 2.375C13.8515 1.65032 13.7419 0.954658 13.541 0.308502L12.7894 0.308502ZM15.4207 0.308502C15.5723 0.983495 15.6488 1.67786 15.6486 2.375C15.6486 4.99156 14.589 7.31973 12.936 8.82461C12.6773 9.42001 12.3767 9.96365 12.0336 10.4378C14.5936 8.94931 16.3515 5.89575 16.3515 2.375C16.3515 1.66411 16.2797 0.972268 16.1443 0.308502L15.4207 0.308502H15.4207ZM8.50001 1.34171C7.99962 1.34171 7.6015 1.79955 7.6015 2.375C7.6015 2.95045 7.99962 3.40829 8.50001 3.40829C9.00041 3.40829 9.39853 2.95045 9.39853 2.375C9.39853 1.79955 9.00041 1.34171 8.50001 1.34171ZM7.70509 3.9713L3.164 20.9436L3.83603 21.1814L4.3497 19.2614L8.50001 18.1601L12.6503 19.2614L13.164 21.1814L13.836 20.9437L9.29494 3.9713C9.08947 4.10784 8.85998 4.18963 8.62337 4.21064L10.563 11.4602L8.50001 12.251L6.43701 11.4602L8.37666 4.21069C8.14005 4.18966 7.91056 4.10785 7.70509 3.9713ZM6.23021 12.2331L7.38841 12.6772L5.96544 13.2226L6.23021 12.2331ZM10.7698 12.2331L11.0346 13.2226L9.61162 12.6772L10.7698 12.2331ZM8.50001 13.1032L10.5567 13.8916L8.50001 14.7517L6.44337 13.8916L8.50001 13.1032ZM5.64556 14.4183L7.47134 15.1819L5.18548 16.1378L5.64556 14.4183ZM11.3545 14.4183L11.8145 16.1378L9.52861 15.1819L11.3545 14.4183ZM8.50001 15.6119L11.0138 16.6632L8.50001 17.3304L5.98615 16.6632L8.50001 15.6119ZM4.90001 17.2047L6.93689 17.7452L4.58865 18.3684L4.90001 17.2047ZM12.0999 17.2047L12.4114 18.3683L10.0632 17.7452L12.0999 17.2047Z" fill="#646464"/>
</svg>
