<svg width="23" height="17" viewBox="0 0 23 17" fill="none" xmlns="http://www.w3.org/2000/svg">
<path d="M13.5 8.50005L10 10.5V6.50005L13.5 8.50005Z" fill="black" stroke="#646464" stroke-width="2" stroke-linecap="round" stroke-linejoin="round"/>
<path d="M1.5 9.20755L1.5 7.79245C1.5 4.8971 1.5 3.44944 2.40549 2.51797C3.31099 1.5865 4.73656 1.54618 7.58769 1.46554C8.93873 1.42733 10.3188 1.39995 11.5 1.39995C12.6812 1.39995 14.0613 1.42733 15.4123 1.46554C18.2634 1.54618 19.689 1.5865 20.5945 2.51797C21.5 3.44944 21.5 4.8971 21.5 7.79245V9.20755C21.5 12.1028 21.5 13.5505 20.5945 14.4819C19.689 15.4134 18.2635 15.4538 15.4124 15.5345C14.0613 15.5727 12.6812 15.6 11.5 15.6C10.3188 15.6 8.93867 15.5727 7.5876 15.5345C4.73651 15.4538 3.31097 15.4134 2.40548 14.4819C1.5 13.5505 1.5 12.1028 1.5 9.20755Z" stroke="#646464" stroke-width="2"/>
</svg>
