<svg width="44" height="45" viewBox="0 0 44 45" fill="none" xmlns="http://www.w3.org/2000/svg">
<ellipse cx="21.7397" cy="22.5" rx="21.7396" ry="22.5" fill="white"/>
<path d="M24.0001 23.1001L20.5001 25.1001V21.1001L24.0001 23.1001Z" fill="black" stroke="#08B1BD" stroke-width="2" stroke-linecap="round" stroke-linejoin="round"/>
<path d="M12.0001 23.8076V22.3925C12.0001 19.4972 12.0001 18.0495 12.9056 17.118C13.8111 16.1866 15.2367 16.1462 18.0878 16.0656C19.4388 16.0274 20.8189 16 22.0001 16C23.1813 16 24.5614 16.0274 25.9124 16.0656C28.7635 16.1462 30.1891 16.1866 31.0946 17.118C32.0001 18.0495 32.0001 19.4972 32.0001 22.3925V23.8076C32.0001 26.7029 32.0001 28.1506 31.0946 29.082C30.1891 30.0135 28.7636 30.0538 25.9125 30.1345C24.5614 30.1727 23.1813 30.2001 22.0001 30.2001C20.8189 30.2001 19.4388 30.1727 18.0877 30.1345C15.2366 30.0538 13.8111 30.0135 12.9056 29.082C12.0001 28.1506 12.0001 26.7029 12.0001 23.8076Z" stroke="#08B1BD" stroke-width="2"/>
</svg>
